<svg width="500" height="600" viewBox="0 0 500 600" xmlns="http://www.w3.org/2000/svg">
  <!-- Background gradient -->
  <defs>
    <linearGradient id="backgroundGradient" x1="0%" y1="0%" x2="100%" y2="100%">
      <stop offset="0%" style="stop-color:#1a237e;stop-opacity:1" />
      <stop offset="50%" style="stop-color:#3f51b5;stop-opacity:1" />
      <stop offset="100%" style="stop-color:#00bcd4;stop-opacity:1" />
    </linearGradient>
    
    <!-- Moon glow -->
    <radialGradient id="moonGlow" cx="50%" cy="50%" r="50%">
      <stop offset="0%" style="stop-color:#ffffff;stop-opacity:0.8" />
      <stop offset="30%" style="stop-color:#e3f2fd;stop-opacity:0.6" />
      <stop offset="70%" style="stop-color:#bbdefb;stop-opacity:0.3" />
      <stop offset="100%" style="stop-color:#1976d2;stop-opacity:0" />
    </radialGradient>
    
    <!-- Mountain gradients -->
    <linearGradient id="mountainGradient1" x1="0%" y1="0%" x2="100%" y2="100%">
      <stop offset="0%" style="stop-color:#0d47a1;stop-opacity:1" />
      <stop offset="100%" style="stop-color:#1565c0;stop-opacity:1" />
    </linearGradient>
    
    <linearGradient id="mountainGradient2" x1="0%" y1="0%" x2="100%" y2="100%">
      <stop offset="0%" style="stop-color:#1565c0;stop-opacity:1" />
      <stop offset="100%" style="stop-color:#1976d2;stop-opacity:1" />
    </linearGradient>
    
    <linearGradient id="mountainGradient3" x1="0%" y1="0%" x2="100%" y2="100%">
      <stop offset="0%" style="stop-color:#1976d2;stop-opacity:1" />
      <stop offset="100%" style="stop-color:#2196f3;stop-opacity:1" />
    </linearGradient>
    
    <!-- Water tower gradients -->
    <linearGradient id="towerGradient" x1="0%" y1="0%" x2="100%" y2="100%">
      <stop offset="0%" style="stop-color:#0d47a1;stop-opacity:1" />
      <stop offset="100%" style="stop-color:#1565c0;stop-opacity:1" />
    </linearGradient>
    
    <linearGradient id="tankGradient" x1="0%" y1="0%" x2="100%" y2="100%">
      <stop offset="0%" style="stop-color:#1565c0;stop-opacity:1" />
      <stop offset="100%" style="stop-color:#1976d2;stop-opacity:1" />
    </linearGradient>
  </defs>
  
  <!-- Background -->
  <rect width="500" height="600" fill="url(#backgroundGradient)" />
  
  <!-- Stars -->
  <circle cx="80" cy="80" r="2" fill="white" opacity="0.8" />
  <circle cx="150" cy="50" r="1.5" fill="white" opacity="0.6" />
  <circle cx="200" cy="90" r="1" fill="white" opacity="0.7" />
  <circle cx="300" cy="70" r="1.5" fill="white" opacity="0.8" />
  <circle cx="350" cy="45" r="1" fill="white" opacity="0.6" />
  <circle cx="400" cy="85" r="2" fill="white" opacity="0.7" />
  <circle cx="450" cy="60" r="1" fill="white" opacity="0.8" />
  <circle cx="120" cy="120" r="1" fill="white" opacity="0.5" />
  <circle cx="380" cy="110" r="1.5" fill="white" opacity="0.6" />
  <circle cx="50" cy="140" r="1" fill="white" opacity="0.7" />
  
  <!-- Moon with glow -->
  <circle cx="380" cy="120" r="60" fill="url(#moonGlow)" opacity="0.4" />
  <circle cx="380" cy="120" r="35" fill="white" />
  
  <!-- Background mountains -->
  <path d="M 0 400 Q 100 300 200 350 Q 300 280 400 320 Q 450 300 500 340 L 500 600 L 0 600 Z" fill="url(#mountainGradient1)" opacity="0.6" />
  
  <!-- Middle mountains -->
  <path d="M 0 450 Q 80 380 160 420 Q 240 360 320 400 Q 400 350 500 380 L 500 600 L 0 600 Z" fill="url(#mountainGradient2)" opacity="0.8" />
  
  <!-- Front mountains -->
  <path d="M 0 500 Q 100 450 200 480 Q 300 420 400 460 Q 450 440 500 470 L 500 600 L 0 600 Z" fill="url(#mountainGradient3)" />
  
  <!-- Water tower structures -->
  <!-- Left tower -->
  <g transform="translate(120, 200)">
    <!-- Tower legs -->
    <polygon points="0,200 10,200 15,50 5,50" fill="url(#towerGradient)" />
    <polygon points="40,200 50,200 45,50 35,50" fill="url(#towerGradient)" />
    <polygon points="80,200 90,200 85,50 75,50" fill="url(#towerGradient)" />
    <polygon points="120,200 130,200 125,50 115,50" fill="url(#towerGradient)" />
    
    <!-- Cross braces -->
    <polygon points="10,180 15,180 45,100 40,100" fill="url(#towerGradient)" opacity="0.8" />
    <polygon points="35,180 40,180 85,100 80,100" fill="url(#towerGradient)" opacity="0.8" />
    <polygon points="85,180 90,180 125,100 120,100" fill="url(#towerGradient)" opacity="0.8" />
    
    <!-- Water tank -->
    <ellipse cx="65" cy="40" rx="45" ry="15" fill="url(#tankGradient)" />
    <rect x="20" y="25" width="90" height="30" fill="url(#tankGradient)" />
    <ellipse cx="65" cy="25" rx="45" ry="15" fill="#1976d2" />
    
    <!-- Tank stripes -->
    <rect x="20" y="30" width="90" height="3" fill="white" opacity="0.3" />
    <rect x="20" y="38" width="90" height="3" fill="white" opacity="0.3" />
    <rect x="20" y="46" width="90" height="3" fill="white" opacity="0.3" />
  </g>
  
  <!-- Right tower (smaller) -->
  <g transform="translate(320, 250)">
    <!-- Tower legs -->
    <polygon points="0,150 8,150 12,40 4,40" fill="url(#towerGradient)" />
    <polygon points="30,150 38,150 34,40 26,40" fill="url(#towerGradient)" />
    <polygon points="60,150 68,150 64,40 56,40" fill="url(#towerGradient)" />
    <polygon points="90,150 98,150 94,40 86,40" fill="url(#towerGradient)" />
    
    <!-- Cross braces -->
    <polygon points="8,130 12,130 34,70 30,70" fill="url(#towerGradient)" opacity="0.8" />
    <polygon points="34,130 38,130 64,70 60,70" fill="url(#towerGradient)" opacity="0.8" />
    <polygon points="64,130 68,130 94,70 90,70" fill="url(#towerGradient)" opacity="0.8" />
    
    <!-- Water tank -->
    <ellipse cx="49" cy="32" rx="35" ry="12" fill="url(#tankGradient)" />
    <rect x="14" y="20" width="70" height="24" fill="url(#tankGradient)" />
    <ellipse cx="49" cy="20" rx="35" ry="12" fill="#1976d2" />
    
    <!-- Tank stripes -->
    <rect x="14" y="24" width="70" height="2" fill="white" opacity="0.3" />
    <rect x="14" y="30" width="70" height="2" fill="white" opacity="0.3" />
    <rect x="14" y="36" width="70" height="2" fill="white" opacity="0.3" />
  </g>
  
  <!-- Additional atmospheric elements -->
  <circle cx="100" cy="200" r="3" fill="white" opacity="0.3" />
  <circle cx="400" cy="180" r="2" fill="white" opacity="0.4" />
  <circle cx="250" cy="160" r="2.5" fill="white" opacity="0.3" />
  
  <!-- Subtle light rays from moon -->
  <path d="M 380 120 L 200 300 L 220 310 L 380 140 Z" fill="white" opacity="0.1" />
  <path d="M 380 120 L 300 250 L 310 260 L 380 130 Z" fill="white" opacity="0.05" />
</svg>